<?xml version="1.0" encoding="UTF-8"?>
<svg width="40px" height="44px" viewBox="0 0 40 44" version="1.1" xmlns="http://www.w3.org/2000/svg" xmlns:xlink="http://www.w3.org/1999/xlink">
    <!-- Generator: Sketch 50.2 (55047) - http://www.bohemiancoding.com/sketch -->
    <title>Icon/clap</title>
    <desc>Created with Sketch.</desc>
    <defs></defs>
    <g id="Page-1" stroke="none" stroke-width="1" fill="none" fill-rule="evenodd">
        <g id="Teste-Front-End" transform="translate(-129.000000, -458.000000)" fill="#566379">
            <g id="share" transform="translate(129.000000, 458.000000)">
                <g id="Icon/clap-Gray-3">
                    <g id="clap">
                        <path d="M36.0493827,23.9012346 C37.0864198,22.5679012 37.037037,20.5925926 35.8024691,19.3580247 C35.4074074,18.962963 34.8641975,18.6666667 34.3209877,18.5185185 C34.5185185,18.0740741 34.617284,17.5802469 34.617284,17.0864198 C34.617284,16.1481481 34.2716049,15.308642 33.6296296,14.6666667 C32.3950617,13.4320988 30.5185185,13.3333333 29.1851852,14.3209877 C29.037037,13.9259259 28.8395062,13.5308642 28.5432099,13.1851852 C27.9012346,12.4938272 27.0123457,12.0493827 26.0740741,12.0493827 C25.1851852,12 24.2962963,12.345679 23.654321,12.9876543 C23.5555556,12.8395062 23.4567901,12.6419753 23.308642,12.5432099 C22.6666667,11.8518519 21.7777778,11.4074074 20.8395062,11.4074074 C19.8518519,11.3580247 18.962963,11.7530864 18.3209877,12.3950617 L13.382716,17.2839506 C12.8395062,15.2098765 10.8641975,13.7777778 8.69135802,14.0246914 C8.09876543,14.0740741 7.55555556,14.3703704 7.16049383,14.7654321 C6.27160494,13.7777778 4.88888889,13.1851852 3.45679012,13.3333333 C2.12345679,13.4814815 1.08641975,14.617284 1.08641975,16 L1.13580247,23.1604938 C1.13580247,25.037037 0.888888889,26.962963 0.444444444,28.6419753 L0.444444444,28.691358 C-0.543209877,32.1481481 0.444444444,35.8518519 2.96296296,38.3703704 C5.58024691,40.9876543 9.08641975,42.4197531 12.7407407,42.4197531 C13.037037,42.4197531 13.382716,42.4197531 13.6790123,42.3703704 C15.0617284,42.8148148 16.5432099,43.0617284 17.9753086,43.0617284 C21.5308642,43.0617284 25.0864198,41.7283951 27.7530864,39.0123457 L37.2839506,29.4320988 C37.9259259,28.7901235 38.2716049,27.9012346 38.2716049,27.0123457 C38.2716049,26.0740741 37.9259259,25.2345679 37.2839506,24.5925926 C36.9382716,24.2962963 36.4938272,24.0493827 36.0493827,23.9012346 Z M19.7530864,13.8271605 C20.0493827,13.5308642 20.4444444,13.4320988 20.7901235,13.4320988 C21.1851852,13.4320988 21.5308642,13.6296296 21.7777778,13.8765432 C21.9259259,14.0740741 22.0246914,14.3209877 22.0246914,14.5679012 L13.8765432,22.9135802 L13.6296296,19.9012346 L19.7530864,13.8271605 Z M4.39506173,36.9876543 C2.37037037,34.962963 1.62962963,32.0493827 2.37037037,29.3333333 C2.91358025,27.3580247 3.16049383,25.2839506 3.16049383,23.2098765 L3.11111111,16.0493827 C3.11111111,15.7530864 3.35802469,15.4567901 3.65432099,15.4567901 C4.9382716,15.308642 6.07407407,16.2469136 6.22222222,17.4814815 L6.32098765,18.6666667 L6.37037037,23.8518519 C6.37037037,25.7283951 6.12345679,27.6049383 5.72839506,29.2839506 C5.72839506,29.3333333 5.67901235,29.3333333 5.67901235,29.382716 C4.69135802,32.8395062 5.67901235,36.5432099 8.19753086,39.0617284 C8.44444444,39.308642 8.74074074,39.5555556 8.98765432,39.8024691 C7.25925926,39.2098765 5.67901235,38.2716049 4.39506173,36.9876543 Z M35.8518519,28.0493827 L26.3209877,37.6296296 C21.7283951,42.2222222 14.2222222,42.2222222 9.62962963,37.6296296 C7.65432099,35.654321 6.86419753,32.7407407 7.60493827,30.0246914 C7.60493827,30.0246914 7.60493827,29.9753086 7.60493827,29.9753086 C8.14814815,27.9506173 8.39506173,25.9259259 8.39506173,23.8518519 C8.39506173,23.8518519 8.39506173,23.8518519 8.39506173,23.8518519 L8.39506173,18.6666667 L8.39506173,18.5185185 L8.39506173,16.691358 C8.39506173,16.3950617 8.64197531,16.0987654 8.9382716,16.0987654 C10.2222222,15.9506173 11.3580247,16.8888889 11.5061728,18.1234568 L11.8518519,23.1111111 C11.9506173,23.8518519 12.4444444,24.4938272 13.1358025,24.7407407 C13.8765432,24.9876543 14.617284,24.7901235 15.1604938,24.2962963 L24.9382716,14.5185185 C25.2345679,14.2222222 25.4814815,14.0740741 25.9753086,14.1234568 C26.3703704,14.1234568 26.7160494,14.3209877 26.962963,14.5679012 C27.4074074,15.0617284 27.3580247,16.0493827 26.8148148,16.5925926 C26.8148148,16.5925926 26.8148148,16.5925926 26.8148148,16.5925926 L19.5555556,23.9012346 C19.1604938,24.2962963 19.1604938,24.9382716 19.5555556,25.3333333 C19.7530864,25.5308642 20,25.6296296 20.2962963,25.6296296 C20.5432099,25.6296296 20.8395062,25.5308642 21.037037,25.3333333 L28.345679,18.0246914 C28.345679,18.0246914 28.345679,18.0246914 28.345679,18.0246914 L30.2716049,16.0987654 C30.8148148,15.5555556 31.7037037,15.5555556 32.2469136,16.0987654 C32.4938272,16.345679 32.6419753,16.691358 32.6419753,17.0864198 C32.6419753,17.4814815 32.4938272,17.8271605 32.2469136,18.0740741 L22.962963,27.308642 C22.5679012,27.7037037 22.5679012,28.345679 22.962963,28.7407407 C23.1604938,28.9382716 23.4074074,29.037037 23.7037037,29.037037 C24,29.037037 24.2469136,28.9382716 24.4444444,28.7407407 L29.6296296,23.5555556 L32.3950617,20.7901235 C32.9382716,20.2469136 33.8271605,20.2469136 34.3703704,20.7901235 C34.9135802,21.3333333 34.9135802,22.2222222 34.3703704,22.7654321 L32.4938272,24.6419753 C32.4938272,24.6419753 32.4938272,24.6419753 32.4938272,24.6419753 L31.1111111,25.9753086 L26.3703704,30.7160494 C25.9753086,31.1111111 25.9753086,31.7530864 26.3703704,32.1481481 C26.5679012,32.345679 26.8148148,32.4444444 27.1111111,32.4444444 C27.4074074,32.4444444 27.654321,32.345679 27.8518519,32.1481481 L33.9259259,26.0740741 C34.4691358,25.5308642 35.3580247,25.5308642 35.9012346,26.0740741 C36.1481481,26.3209877 36.2962963,26.6666667 36.2962963,27.0617284 C36.2962963,27.4567901 36.1481481,27.8024691 35.8518519,28.0493827 Z M29.4814815,7.01234568 L32,1.62962963 C32.2469136,1.13580247 32.8395062,0.888888889 33.3333333,1.13580247 C33.8271605,1.38271605 34.0740741,1.97530864 33.8271605,2.4691358 L31.3580247,7.90123457 C31.1604938,8.2962963 30.8148148,8.49382716 30.4197531,8.49382716 C30.2716049,8.49382716 30.1234568,8.44444444 29.9753086,8.39506173 C29.4814815,8.14814815 29.2839506,7.50617284 29.4814815,7.01234568 Z M24.1975309,1.5308642 C24.0493827,0.987654321 24.3950617,0.444444444 24.9382716,0.296296296 C25.4814815,0.148148148 26.0246914,0.444444444 26.1728395,0.987654321 L27.7037037,6.71604938 C27.8518519,7.25925926 27.5061728,7.80246914 26.962963,7.95061728 C26.8641975,7.95061728 26.7654321,8 26.7160494,8 C26.2716049,8 25.8765432,7.7037037 25.7283951,7.25925926 L24.1975309,1.5308642 Z M38.962963,8.44444444 L33.5802469,10.962963 C33.4320988,11.0123457 33.2839506,11.0617284 33.1358025,11.0617284 C32.7407407,11.0617284 32.3950617,10.8641975 32.1975309,10.4691358 C31.9506173,9.97530864 32.1975309,9.33333333 32.691358,9.13580247 L38.0740741,6.61728395 C38.5679012,6.37037037 39.2098765,6.61728395 39.4074074,7.11111111 C39.7037037,7.60493827 39.4567901,8.19753086 38.962963,8.44444444 Z" id="Shape" fill-rule="nonzero"></path>
                    </g>
                </g>
            </g>
        </g>
    </g>
</svg>