<?xml version="1.0" encoding="UTF-8"?>
<svg width="14px" height="24px" viewBox="0 0 14 24" version="1.1" xmlns="http://www.w3.org/2000/svg" xmlns:xlink="http://www.w3.org/1999/xlink">
    <!-- Generator: Sketch 50.2 (55047) - http://www.bohemiancoding.com/sketch -->
    <title>if_entoni_facebook_330869</title>
    <desc>Created with Sketch.</desc>
    <defs></defs>
    <g id="Page-1" stroke="none" stroke-width="1" fill="none" fill-rule="evenodd">
        <g id="Teste-Front-End" transform="translate(-142.000000, -620.000000)" fill="#566379" fill-rule="nonzero" stroke="#FFFFFF" stroke-width="0.2">
            <g id="share" transform="translate(129.000000, 458.000000)">
                <g id="if_entoni_facebook_330869" transform="translate(13.000000, 162.000000)">
                    <path d="M11.8289231,1.34184615 L11.8289231,5.37384615 L9.89907692,5.37384615 C8.41723077,5.37384615 8.24492308,6.26984615 8.24492308,7.19923077 L8.24492308,8.61215385 L11.8289231,8.61215385 L11.4843077,12.9866154 L8.24492308,12.9866154 L8.24492308,22.5669231 L3.86830769,22.5669231 L3.86830769,12.9866154 L1.35369231,12.9866154 L1.35369231,8.61215385 L3.86830769,8.61215385 L3.86830769,5.40615385 C3.86830769,2.78707692 5.35123077,1.34076923 8.24492308,1.34076923 L11.8289231,1.34076923 L11.8289231,1.34184615 Z M12.9058462,0.264923077 L11.8289231,0.264923077 L8.24492308,0.264923077 C4.77830769,0.264923077 2.79138462,2.13876923 2.79138462,5.40723077 L2.79138462,7.53630769 L1.35369231,7.53630769 L0.276769231,7.53630769 L0.276769231,8.61323077 L0.276769231,12.9876923 L0.276769231,14.0646154 L1.35369231,14.0646154 L2.79138462,14.0646154 L2.79138462,22.568 L2.79138462,23.6449231 L3.86830769,23.6449231 L8.24492308,23.6449231 L9.32184615,23.6449231 L9.32184615,22.568 L9.32184615,14.0646154 L11.4843077,14.0646154 L12.4793846,14.0646154 L12.558,13.0716923 L12.9026154,8.69723077 L12.9941538,7.53630769 L11.8289231,7.53630769 L9.32184615,7.53630769 L9.32184615,7.20030769 C9.32184615,6.45184615 9.35415385,6.45184615 9.89907692,6.45184615 L11.8289231,6.45184615 L12.9058462,6.45184615 L12.9058462,5.37492308 L12.9058462,1.34184615 L12.9058462,0.264923077 Z" id="Shape"></path>
                </g>
            </g>
        </g>
    </g>
</svg>