<?xml version="1.0" encoding="UTF-8"?>
<svg width="21px" height="21px" viewBox="0 0 21 21" version="1.1" xmlns="http://www.w3.org/2000/svg" xmlns:xlink="http://www.w3.org/1999/xlink">
    <!-- Generator: Sketch 50.2 (55047) - http://www.bohemiancoding.com/sketch -->
    <title>if_Linkedin_853357</title>
    <desc>Created with Sketch.</desc>
    <defs></defs>
    <g id="Page-1" stroke="none" stroke-width="1" fill="none" fill-rule="evenodd">
        <g id="Teste-Front-End" transform="translate(-139.000000, -724.000000)" fill="#566379" fill-rule="nonzero">
            <g id="share" transform="translate(129.000000, 458.000000)">
                <g id="if_Linkedin_853357" transform="translate(10.000000, 266.000000)">
                    <path d="M20.98075,20.58 L14.70875,20.58 L14.70875,13.479375 C14.70875,11.797625 14.163625,11.797625 13.93,11.797625 C13.001625,11.797625 12.900125,12.9955 12.900125,13.51 L12.900125,20.58 L7.251125,20.58 L7.251125,7.434 L12.859,7.434 C13.540625,7.021875 14.46375,6.7935 15.48925,6.7935 C16.1455,6.7935 17.801,6.91425 19.002375,8.035125 C20.279,9.22425 20.98075,11.062625 20.98075,13.21075 L20.98075,20.58 Z M15.386875,19.901 L20.302625,19.901 L20.302625,13.21075 C20.302625,11.253375 19.676125,9.590875 18.5395,8.53125 C17.514,7.574875 16.064125,7.471625 15.48925,7.471625 C14.340375,7.471625 13.35775,7.783125 12.79775,8.327375 L12.22375,8.885625 L12.22375,8.112125 L7.92925,8.127875 L7.92925,19.901 L12.22375,19.901 L12.22375,13.509125 C12.22375,12.012 12.861625,11.118625 13.93,11.118625 C14.91,11.118625 15.386875,11.890375 15.386875,13.4785 L15.386875,19.901 Z M6.290375,20.58 L0.01925,20.58 L0.01925,7.434 L6.290375,7.434 L6.290375,20.58 Z M0.697375,19.901 L5.61225,19.901 L5.61225,8.112125 L0.697375,8.127875 L0.697375,19.901 Z M3.154375,6.692875 C1.425375,6.692875 0.01925,5.285875 0.01925,3.556 C0.01925,1.827 1.425375,0.420875 3.154375,0.420875 C4.883375,0.420875 6.2895,1.827 6.2895,3.556 C6.290375,5.285875 4.88425,6.692875 3.154375,6.692875 Z M3.154375,1.099 C1.799,1.099 0.6965,2.2015 0.6965,3.556 C0.6965,4.911375 1.799,6.01475 3.154375,6.01475 C4.50975,6.01475 5.61225,4.91225 5.61225,3.556 C5.61225,2.2015 4.50975,1.099 3.154375,1.099 Z" id="Shape"></path>
                </g>
            </g>
        </g>
    </g>
</svg>