<?xml version="1.0" encoding="UTF-8"?>
<svg width="24px" height="24px" viewBox="0 0 24 24" version="1.1" xmlns="http://www.w3.org/2000/svg" xmlns:xlink="http://www.w3.org/1999/xlink">
    <!-- Generator: Sketch 50.2 (55047) - http://www.bohemiancoding.com/sketch -->
    <title>if_Whatsapp_853339</title>
    <desc>Created with Sketch.</desc>
    <defs></defs>
    <g id="Page-1" stroke="none" stroke-width="1" fill="none" fill-rule="evenodd">
        <g id="Teste-Front-End" transform="translate(-137.000000, -566.000000)" fill="#566379" fill-rule="nonzero">
            <g id="share" transform="translate(129.000000, 458.000000)">
                <g id="if_Whatsapp_853339" transform="translate(7.000000, 108.000000)">
                    <path d="M0.991,24 L3.185,18.296 C1.943,16.377 1.289,14.156 1.289,11.861 C1.289,5.32 6.609,0 13.149,0 C19.688,0 25.009,5.32 25.009,11.861 C25.009,18.4 19.688,23.721 13.149,23.721 C10.918,23.721 8.748,23.094 6.858,21.908 L0.991,24 Z M6.967,20.974 L7.142,21.088 C8.934,22.259 11.011,22.878 13.149,22.878 C19.225,22.878 24.166,17.937 24.166,11.861 C24.166,5.785 19.225,0.842 13.149,0.842 C7.073,0.842 2.131,5.785 2.131,11.861 C2.131,14.063 2.779,16.189 4.005,18.01 L4.128,18.192 L2.436,22.591 L6.967,20.974 Z" id="Shape"></path>
                    <path d="M16.135,17.749 C14.702,17.749 11.766,16.041 10.367,14.641 C9.116,13.39 7.26,10.417 7.26,8.874 C7.26,7.332 8.906,5.615 10.021,5.615 L10.176,5.615 L10.293,5.715 C10.589,5.967 12.081,7.249 12.38,7.832 C12.812,8.674 11.756,9.88 11.199,10.432 C11.448,10.746 12.014,11.418 12.802,12.206 C13.545,12.95 14.451,13.351 14.872,13.511 C15.238,13.151 15.985,12.508 16.668,12.508 L16.768,12.519 L17.183,12.632 C17.761,12.929 19.042,14.421 19.292,14.716 L19.392,14.834 L19.392,14.988 C19.392,16.104 17.677,17.749 16.135,17.749 Z M9.886,6.474 C9.22,6.634 8.101,7.859 8.101,8.874 C8.101,10.149 9.832,12.916 10.962,14.046 C12.326,15.41 15.033,16.907 16.135,16.907 C17.15,16.907 18.374,15.787 18.532,15.122 C17.971,14.472 17.159,13.601 16.835,13.4 L16.627,13.35 C16.291,13.385 15.699,13.838 15.301,14.277 L15.122,14.473 L14.867,14.397 C14.712,14.351 13.321,13.914 12.206,12.8 C11.476,12.07 10.35,10.825 10.252,10.475 L10.181,10.224 L10.376,10.049 C11.134,9.368 11.755,8.46 11.629,8.216 C11.477,7.917 10.562,7.058 9.886,6.474 Z" id="Shape"></path>
                </g>
            </g>
        </g>
    </g>
</svg>