<?xml version="1.0" encoding="UTF-8"?>
<svg width="25px" height="19px" viewBox="0 0 25 19" version="1.1" xmlns="http://www.w3.org/2000/svg" xmlns:xlink="http://www.w3.org/1999/xlink">
    <!-- Generator: Sketch 50.2 (55047) - http://www.bohemiancoding.com/sketch -->
    <title>mail</title>
    <desc>Created with Sketch.</desc>
    <defs></defs>
    <g id="Page-1" stroke="none" stroke-width="1" fill="none" fill-rule="evenodd">
        <g id="Teste-Front-End" transform="translate(-137.000000, -774.000000)" fill="#566379" fill-rule="nonzero" stroke="#FFFFFF" stroke-width="0.4">
            <g id="share" transform="translate(129.000000, 458.000000)">
                <g id="mail" transform="translate(9.000000, 317.000000)">
                    <path d="M20.9051279,0.0750410397 L2.09513953,0.0750410397 C1.01360465,0.0750410397 0.13372093,1.00668263 0.13372093,2.15183721 L0.13372093,15.4052175 C0.13372093,16.5500889 1.01360465,17.4814473 2.09513953,17.4814473 L20.9051279,17.4814473 C21.9863953,17.4814473 22.8662791,16.5500889 22.8662791,15.4052175 L22.8662791,2.15183721 C22.8662791,1.00668263 21.9863953,0.0750410397 20.9051279,0.0750410397 Z M14.3081395,8.77838577 L21.7724419,1.8975472 C21.7938372,1.97910123 21.808814,2.06320383 21.808814,2.15183721 L21.808814,15.4052175 C21.808814,15.4938509 21.7938372,15.5776703 21.7724419,15.6589412 L14.3081395,8.77838577 Z M20.9051279,1.19442681 C20.9110116,1.19442681 20.9168953,1.19612585 20.9227791,1.19640903 L12.0934535,9.33538851 C11.7497907,9.65282627 11.2504767,9.65282627 10.9062791,9.33538851 L2.07695349,1.1966922 C2.08310465,1.19640903 2.08872093,1.19470999 2.09513953,1.19470999 L20.9051279,1.19470999 L20.9051279,1.19442681 Z M1.2272907,15.6592244 C1.20589535,15.5773871 1.1909186,15.4938509 1.1909186,15.4055007 L1.1909186,2.15183721 C1.1909186,2.06320383 1.20589535,1.9793844 1.2272907,1.89783037 L8.69186047,8.77838577 L1.2272907,15.6592244 Z M2.09513953,16.3620616 C2.08898837,16.3620616 2.08337209,16.3603625 2.07722093,16.3603625 L9.49712791,9.52058413 L10.212,10.1798126 C10.5850814,10.5233023 11.042407,10.6957551 11.4997326,10.6957551 C11.9567907,10.6957551 12.4143837,10.5233023 12.7877326,10.1798126 L13.5028721,9.52058413 L20.9225116,16.3603625 C20.9166279,16.3603625 20.9107442,16.3620616 20.9051279,16.3620616 L2.09513953,16.3620616 Z" id="Shape"></path>
                </g>
            </g>
        </g>
    </g>
</svg>