<?xml version="1.0" encoding="UTF-8"?>
<svg width="23px" height="19px" viewBox="0 0 23 19" version="1.1" xmlns="http://www.w3.org/2000/svg" xmlns:xlink="http://www.w3.org/1999/xlink">
    <!-- Generator: Sketch 50.2 (55047) - http://www.bohemiancoding.com/sketch -->
    <title>Twiter</title>
    <desc>Created with Sketch.</desc>
    <defs></defs>
    <g id="Page-1" stroke="none" stroke-width="1" fill="none" fill-rule="evenodd">
        <g id="Teste-Front-End" transform="translate(-138.000000, -674.000000)" fill="#566379" fill-rule="nonzero">
            <g id="share" transform="translate(129.000000, 458.000000)">
                <g id="Twiter" transform="translate(9.000000, 216.000000)">
                    <path d="M8.42758333,18.339625 C6.345125,18.339625 4.28279167,17.7627083 2.46195833,16.6740417 L0.0555833333,15.2307917 L2.86158333,15.2787083 C2.91620833,15.2825417 2.98808333,15.2854167 3.09925,15.2854167 C3.521875,15.2854167 4.87791667,15.226 6.37675,14.5657083 C5.23825,13.9993333 4.35754167,13.0045833 3.94833333,11.7894167 L3.50558333,10.4745833 L3.52570833,10.4784167 C2.97083333,9.73091667 2.64020833,8.83008333 2.58845833,7.88325 L2.52329167,6.66616667 L2.99383333,6.87125 C2.55108333,5.86116667 2.25975,4.33070833 3.22,2.57983333 L3.77295833,1.57741667 L4.47158333,2.48304167 C6.06241667,4.539625 8.41704167,5.85829167 10.9815417,6.14291667 C10.985375,3.86591667 12.719,1.51416667 15.617,1.51416667 C16.7564583,1.51416667 17.87675,1.946375 18.7210417,2.70729167 C19.6602083,2.44758333 20.5207917,1.92433333 20.5313333,1.91858333 L22.3061667,0.826083333 L21.6353333,2.80025 C21.5835833,2.94975 21.525125,3.09733333 21.459,3.23916667 L22.9434583,2.51370833 L22.0493333,4.43516667 C21.6679167,5.25645833 21.0382917,5.959875 20.2668333,6.43425 C20.3732083,9.20670833 19.2030833,12.2867917 17.1790833,14.527375 C15.625625,16.2504583 12.8579583,18.3099167 8.49945833,18.3377083 L8.42758333,18.339625 Z M2.7255,15.993625 L2.831875,16.056875 C4.53866667,17.0794167 6.47354167,17.620875 8.42470833,17.620875 L8.49466667,17.620875 C12.5915417,17.5940417 15.188625,15.663 16.6472083,14.04725 C18.6002917,11.8842917 19.7071667,8.90004167 19.5394583,6.25791667 L19.524125,6.02983333 L19.7244167,5.92058333 C20.4546667,5.52095833 21.0488333,4.88654167 21.3995833,4.13425 L21.4379167,4.04895833 L21.237625,4.148625 C21.030625,4.23870833 20.846625,4.30866667 20.656875,4.37 L19.4800417,4.75525 L20.2677917,3.80075 C20.570625,3.43275 20.8025417,3.01970833 20.9549167,2.57025 L20.9836667,2.484 L20.907,2.53095833 C20.898375,2.53670833 19.8336667,3.18933333 18.7009167,3.45479167 L18.50925,3.49983333 L18.3674167,3.360875 C17.6419583,2.64404167 16.6395417,2.23195833 15.6179583,2.23195833 C13.164625,2.23195833 11.7002917,4.223375 11.7002917,6.149625 C11.7002917,6.19658333 11.7117917,6.34320833 11.7280833,6.50325 L11.7683333,6.92491667 L11.3466667,6.897125 C8.41895833,6.69970833 5.706875,5.25070833 3.90425,2.92291667 L3.87358333,2.88266667 L3.849625,2.92675 C2.699625,5.01975 3.65029167,6.74858333 4.11125,7.39545833 L4.73895833,8.27425 L3.71066667,7.94554167 C3.58895833,7.90720833 3.46916667,7.86025 3.35225,7.80945833 L3.30145833,7.78741667 L3.30433333,7.843 C3.3695,9.03420833 3.953125,10.13725 4.90475,10.8675 L6.30966667,11.9465833 L4.60958333,11.5019167 L4.62970833,11.560375 C5.05233333,12.819625 6.07295833,13.7990417 7.35808333,14.182375 L8.16691667,14.423875 L7.431875,14.8388333 C5.52,15.9179167 3.63304167,16.00225 3.10020833,16.00225 C2.97275,16.00225 2.89033333,15.999375 2.8405,15.9974583 L2.7255,15.993625 Z" id="Shape"></path>
                </g>
            </g>
        </g>
    </g>
</svg>